<svg width="48" height="48" viewBox="0 0 48 48" fill="none" xmlns="http://www.w3.org/2000/svg">
<path d="M4.7998 11.2H4.8158" stroke="#00FFFF" stroke-opacity="0.01" stroke-width="3.2" stroke-linecap="square"/>
<path d="M4.7998 24H4.8158" stroke="#00FFFF" stroke-opacity="0.01" stroke-width="3.2" stroke-linecap="square"/>
<path d="M4.7998 30.3999H4.8158" stroke="#00FFFF" stroke-opacity="0.01" stroke-width="3.2" stroke-linecap="square"/>
<path d="M4.7998 36.8H4.8158" stroke="#00FFFF" stroke-opacity="0.01" stroke-width="3.2" stroke-linecap="square"/>
<path d="M4.7998 43.2H4.8158" stroke="#00FFFF" stroke-width="3.2" stroke-linecap="square"/>
<path d="M11.2002 11.2H11.2162" stroke="#00FFFF" stroke-width="3.2" stroke-linecap="square"/>
<path d="M11.2002 24H11.2162" stroke="#00FFFF" stroke-opacity="0.01" stroke-width="3.2" stroke-linecap="square"/>
<path d="M11.2002 17.6001H11.2162" stroke="#00FFFF" stroke-width="3.2" stroke-linecap="square"/>
<path d="M17.5996 17.6001H17.6156" stroke="#00FFFF" stroke-width="3.2" stroke-linecap="square"/>
<path d="M24 17.6001H24.016" stroke="#00FFFF" stroke-width="3.2" stroke-linecap="square"/>
<path d="M36.7998 17.6001H36.8158" stroke="#00FFFF" stroke-opacity="0.01" stroke-width="3.2" stroke-linecap="square"/>
<path d="M43.2002 17.6001H43.2162" stroke="#00FFFF" stroke-opacity="0.01" stroke-width="3.2" stroke-linecap="square"/>
<path d="M4.7998 17.6001H4.8158" stroke="#00FFFF" stroke-width="3.2" stroke-linecap="square"/>
<path d="M11.2002 30.3999H11.2162" stroke="#00FFFF" stroke-opacity="0.01" stroke-width="3.2" stroke-linecap="square"/>
<path d="M11.2002 36.8H11.2162" stroke="#00FFFF" stroke-width="3.2" stroke-linecap="square"/>
<path d="M17.5996 11.2H17.6156" stroke="#00FFFF" stroke-opacity="0.25" stroke-width="3.2" stroke-linecap="square"/>
<path d="M17.5996 24H17.6156" stroke="#00FFFF" stroke-opacity="0.01" stroke-width="3.2" stroke-linecap="square"/>
<path d="M17.5996 30.3999H17.6156" stroke="#00FFFF" stroke-width="3.2" stroke-linecap="square"/>
<path d="M17.5996 36.8H17.6156" stroke="#00FFFF" stroke-opacity="0.25" stroke-width="3.2" stroke-linecap="square"/>
<path d="M17.5996 43.2H17.6156" stroke="#00FFFF" stroke-width="3.2" stroke-linecap="square"/>
<path d="M11.2002 43.2H11.2162" stroke="#00FFFF" stroke-width="3.2" stroke-linecap="square"/>
<path d="M24 11.2H24.016" stroke="#00FFFF" stroke-opacity="0.25" stroke-width="3.2" stroke-linecap="square"/>
<path d="M24 24H24.016" stroke="#00FFFF" stroke-opacity="0.01" stroke-width="3.2" stroke-linecap="square"/>
<path d="M24 36.8H24.016" stroke="#00FFFF" stroke-opacity="0.25" stroke-width="3.2" stroke-linecap="square"/>
<path d="M24 30.3999H24.016" stroke="#00FFFF" stroke-width="3.2" stroke-linecap="square"/>
<path d="M24 43.2H24.016" stroke="#00FFFF" stroke-width="3.2" stroke-linecap="square"/>
<path d="M30.4004 11.2H30.4164" stroke="#00FFFF" stroke-opacity="0.01" stroke-width="3.2" stroke-linecap="square"/>
<path d="M30.4004 24H30.4164" stroke="#00FFFF" stroke-opacity="0.01" stroke-width="3.2" stroke-linecap="square"/>
<path d="M30.4004 17.6001H30.4164" stroke="#00FFFF" stroke-width="3.2" stroke-linecap="square"/>
<path d="M30.4004 30.3999H30.4164" stroke="#00FFFF" stroke-width="3.2" stroke-linecap="square"/>
<path d="M30.4004 36.8H30.4164" stroke="#00FFFF" stroke-opacity="0.01" stroke-width="3.2" stroke-linecap="square"/>
<path d="M30.4004 43.2H30.4164" stroke="#00FFFF" stroke-width="3.2" stroke-linecap="square"/>
<path d="M36.7998 11.2H36.8158" stroke="#00FFFF" stroke-width="3.2" stroke-linecap="square"/>
<path d="M36.7998 24H36.8158" stroke="#00FFFF" stroke-opacity="0.01" stroke-width="3.2" stroke-linecap="square"/>
<path d="M11.2002 4.80005H11.2162" stroke="#00FFFF" stroke-opacity="0.01" stroke-width="3.2" stroke-linecap="square"/>
<path d="M4.7998 4.80005H4.8158" stroke="#00FFFF" stroke-opacity="0.01" stroke-width="3.2" stroke-linecap="square"/>
<path d="M17.5996 4.80005H17.6156" stroke="#00FFFF" stroke-width="3.2" stroke-linecap="square"/>
<path d="M24 4.80005H24.016" stroke="#00FFFF" stroke-width="3.2" stroke-linecap="square"/>
<path d="M30.4004 4.80005H30.4164" stroke="#00FFFF" stroke-width="3.2" stroke-linecap="square"/>
<path d="M36.7998 4.80005H36.8158" stroke="#00FFFF" stroke-width="3.2" stroke-linecap="square"/>
<path d="M43.2002 4.80005H43.2162" stroke="#00FFFF" stroke-width="3.2" stroke-linecap="square"/>
<path d="M36.7998 30.3999H36.8158" stroke="#00FFFF" stroke-width="3.2" stroke-linecap="square"/>
<path d="M36.7998 36.8H36.8158" stroke="#00FFFF" stroke-width="3.2" stroke-linecap="square"/>
<path d="M36.7998 43.2H36.8158" stroke="#00FFFF" stroke-opacity="0.01" stroke-width="3.2" stroke-linecap="square"/>
<path d="M43.2002 11.2H43.2162" stroke="#00FFFF" stroke-opacity="0.01" stroke-width="3.2" stroke-linecap="square"/>
<path d="M43.2002 24H43.2162" stroke="#00FFFF" stroke-opacity="0.01" stroke-width="3.2" stroke-linecap="square"/>
<path d="M43.2002 30.3999H43.2162" stroke="#00FFFF" stroke-width="3.2" stroke-linecap="square"/>
<path d="M43.2002 36.8H43.2162" stroke="#00FFFF" stroke-opacity="0.01" stroke-width="3.2" stroke-linecap="square"/>
<path d="M43.2002 43.2H43.2162" stroke="#00FFFF" stroke-opacity="0.01" stroke-width="3.2" stroke-linecap="square"/>
</svg>
