<svg width="48" height="48" viewBox="0 0 48 48" fill="none" xmlns="http://www.w3.org/2000/svg">
<path d="M4.80078 11.2002H4.81678" stroke="#8446FF" stroke-opacity="0.01" stroke-width="3.2" stroke-linecap="square"/>
<path d="M4.80078 17.6001H4.81678" stroke="#8446FF" stroke-opacity="0.01" stroke-width="3.2" stroke-linecap="square"/>
<path d="M4.80078 24H4.81678" stroke="#8446FF" stroke-opacity="0.01" stroke-width="3.2" stroke-linecap="square"/>
<path d="M4.80078 30.3999H4.81678" stroke="#8446FF" stroke-opacity="0.01" stroke-width="3.2" stroke-linecap="square"/>
<path d="M4.80078 36.7998H4.81678" stroke="#8446FF" stroke-opacity="0.01" stroke-width="3.2" stroke-linecap="square"/>
<path d="M4.80078 43.2002H4.81678" stroke="#8446FF" stroke-opacity="0.01" stroke-width="3.2" stroke-linecap="square"/>
<path d="M11.1992 11.2002H11.2152" stroke="#8446FF" stroke-width="3.2" stroke-linecap="square"/>
<path d="M11.1992 17.6001H11.2152" stroke="#8446FF" stroke-width="3.2" stroke-linecap="square"/>
<path d="M11.1992 24H11.2152" stroke="#8446FF" stroke-width="3.2" stroke-linecap="square"/>
<path d="M11.1992 30.3999H11.2152" stroke="#8446FF" stroke-width="3.2" stroke-linecap="square"/>
<path d="M11.1992 36.7998H11.2152" stroke="#8446FF" stroke-width="3.2" stroke-linecap="square"/>
<path d="M11.1992 43.2002H11.2152" stroke="#8446FF" stroke-opacity="0.01" stroke-width="3.2" stroke-linecap="square"/>
<path d="M17.5996 11.2002H17.6156" stroke="#8446FF" stroke-opacity="0.01" stroke-width="3.2" stroke-linecap="square"/>
<path d="M17.5996 17.6001H17.6156" stroke="#8446FF" stroke-opacity="0.01" stroke-width="3.2" stroke-linecap="square"/>
<path d="M17.5996 24H17.6156" stroke="#8446FF" stroke-opacity="0.25" stroke-width="3.2" stroke-linecap="square"/>
<path d="M17.5996 30.3999H17.6156" stroke="#8446FF" stroke-opacity="0.25" stroke-width="3.2" stroke-linecap="square"/>
<path d="M17.5996 36.7998H17.6156" stroke="#8446FF" stroke-opacity="0.25" stroke-width="3.2" stroke-linecap="square"/>
<path d="M17.5996 43.2002H17.6156" stroke="#8446FF" stroke-width="3.2" stroke-linecap="square"/>
<path d="M24 17.6001H24.016" stroke="#8446FF" stroke-opacity="0.01" stroke-width="3.2" stroke-linecap="square"/>
<path d="M24 11.2002H24.016" stroke="#8446FF" stroke-opacity="0.01" stroke-width="3.2" stroke-linecap="square"/>
<path d="M24 24H24.016" stroke="#8446FF" stroke-opacity="0.01" stroke-width="3.2" stroke-linecap="square"/>
<path d="M24 30.3999H24.016" stroke="#8446FF" stroke-opacity="0.01" stroke-width="3.2" stroke-linecap="square"/>
<path d="M24 36.7998H24.016" stroke="#8446FF" stroke-width="3.2" stroke-linecap="square"/>
<path d="M24 43.2002H24.016" stroke="#8446FF" stroke-width="3.2" stroke-linecap="square"/>
<path d="M30.4004 24H30.4164" stroke="#8446FF" stroke-opacity="0.01" stroke-width="3.2" stroke-linecap="square"/>
<path d="M30.4004 17.6001H30.4164" stroke="#8446FF" stroke-opacity="0.01" stroke-width="3.2" stroke-linecap="square"/>
<path d="M30.4004 11.2002H30.4164" stroke="#8446FF" stroke-opacity="0.01" stroke-width="3.2" stroke-linecap="square"/>
<path d="M30.4004 30.3999H30.4164" stroke="#8446FF" stroke-opacity="0.01" stroke-width="3.2" stroke-linecap="square"/>
<path d="M30.4004 36.7998H30.4164" stroke="#8446FF" stroke-opacity="0.25" stroke-width="3.2" stroke-linecap="square"/>
<path d="M30.4004 43.2002H30.4164" stroke="#8446FF" stroke-width="3.2" stroke-linecap="square"/>
<path d="M36.8008 11.2002H36.8168" stroke="#8446FF" stroke-width="3.2" stroke-linecap="square"/>
<path d="M36.8008 17.6001H36.8168" stroke="#8446FF" stroke-width="3.2" stroke-linecap="square"/>
<path d="M11.1992 4.7998H11.2152" stroke="#8446FF" stroke-opacity="0.01" stroke-width="3.2" stroke-linecap="square"/>
<path d="M4.80078 4.7998H4.81678" stroke="#8446FF" stroke-opacity="0.01" stroke-width="3.2" stroke-linecap="square"/>
<path d="M17.5996 4.7998H17.6156" stroke="#8446FF" stroke-width="3.2" stroke-linecap="square"/>
<path d="M24 4.7998H24.016" stroke="#8446FF" stroke-width="3.2" stroke-linecap="square"/>
<path d="M30.4004 4.7998H30.4164" stroke="#8446FF" stroke-width="3.2" stroke-linecap="square"/>
<path d="M36.8008 4.7998H36.8168" stroke="#8446FF" stroke-opacity="0.01" stroke-width="3.2" stroke-linecap="square"/>
<path d="M43.1992 4.7998H43.2152" stroke="#8446FF" stroke-opacity="0.01" stroke-width="3.2" stroke-linecap="square"/>
<path d="M36.8008 24H36.8168" stroke="#8446FF" stroke-width="3.2" stroke-linecap="square"/>
<path d="M36.8008 30.3999H36.8168" stroke="#8446FF" stroke-width="3.2" stroke-linecap="square"/>
<path d="M36.8008 36.7998H36.8168" stroke="#8446FF" stroke-width="3.2" stroke-linecap="square"/>
<path d="M43.1992 43.2002H43.2152" stroke="#8446FF" stroke-opacity="0.01" stroke-width="3.2" stroke-linecap="square"/>
<path d="M36.8008 43.2002H36.8168" stroke="#8446FF" stroke-opacity="0.01" stroke-width="3.2" stroke-linecap="square"/>
<path d="M43.1992 11.2002H43.2152" stroke="#8446FF" stroke-opacity="0.01" stroke-width="3.2" stroke-linecap="square"/>
<path d="M43.1992 17.6001H43.2152" stroke="#8446FF" stroke-opacity="0.01" stroke-width="3.2" stroke-linecap="square"/>
<path d="M43.1992 24H43.2152" stroke="#8446FF" stroke-opacity="0.01" stroke-width="3.2" stroke-linecap="square"/>
<path d="M43.1992 30.3999H43.2152" stroke="#8446FF" stroke-opacity="0.01" stroke-width="3.2" stroke-linecap="square"/>
<path d="M43.1992 36.7998H43.2152" stroke="#8446FF" stroke-opacity="0.01" stroke-width="3.2" stroke-linecap="square"/>
</svg>
