<svg width="32" height="29" viewBox="0 0 32 29" fill="none" xmlns="http://www.w3.org/2000/svg">
<path fill-rule="evenodd" clip-rule="evenodd" d="M5.49714 21.9616C5.60041 21.848 5.72618 21.7574 5.86648 21.6953C6.00665 21.6331 6.15847 21.601 6.3118 21.6009L31.4484 21.6215C31.5555 21.6217 31.6602 21.653 31.7497 21.7116C31.8394 21.7701 31.91 21.8535 31.9531 21.9515C31.9963 22.0494 32.01 22.1579 31.9927 22.2635C31.9755 22.3691 31.9279 22.4674 31.8557 22.5465L26.5028 28.4405C26.3995 28.5541 26.2736 28.6448 26.1333 28.707C25.9929 28.7691 25.8411 28.8012 25.6875 28.8012L0.551588 28.7806C0.444543 28.7804 0.339858 28.7491 0.250259 28.6905C0.16066 28.632 0.0900005 28.5486 0.0468673 28.4507C0.00373402 28.3527 -0.0100361 28.2442 0.00725831 28.1386C0.024539 28.033 0.0721435 27.9347 0.144256 27.8556L5.49714 21.9616ZM31.8557 17.0551C31.9279 17.1342 31.9755 17.2326 31.9927 17.3382C32.01 17.4438 31.9963 17.5523 31.9531 17.6502C31.91 17.7481 31.8394 17.8315 31.7497 17.8901C31.6602 17.9486 31.5555 17.9799 31.4484 17.9802L6.31249 18.0007C6.15902 18.0007 6.00719 17.9687 5.86675 17.9065C5.72631 17.8444 5.60041 17.7536 5.49714 17.64L0.144256 11.7427C0.0721435 11.6635 0.024539 11.5652 0.00725831 11.4596C-0.0100361 11.354 0.00373402 11.2455 0.0468673 11.1476C0.0900005 11.0496 0.16066 10.9663 0.250259 10.9077C0.339858 10.8491 0.444543 10.8179 0.551588 10.8176L25.6882 10.797C25.8416 10.7972 25.9933 10.8293 26.1336 10.8914C26.2739 10.9535 26.3997 11.0442 26.5028 11.1577L31.8557 17.0551ZM5.49714 0.3607C5.60041 0.247183 5.72618 0.156459 5.86648 0.0943441C6.00665 0.0322432 6.15847 9.6004e-05 6.3118 0L31.4484 0.0205725C31.5555 0.0207919 31.6602 0.052089 31.7497 0.110665C31.8394 0.169241 31.91 0.252573 31.9531 0.350538C31.9963 0.448517 32.01 0.556906 31.9927 0.662538C31.9755 0.76817 31.9279 0.866504 31.8557 0.945639L26.5028 6.8396C26.3995 6.95316 26.2736 7.04395 26.1333 7.10608C25.9929 7.16821 25.8411 7.2003 25.6875 7.2003L0.551588 7.17973C0.444543 7.17945 0.339858 7.14818 0.250259 7.08962C0.16066 7.03106 0.0900005 6.94767 0.0468673 6.84975C0.00373402 6.75182 -0.0100361 6.64334 0.00725831 6.53774C0.024539 6.43213 0.0721435 6.33379 0.144256 6.25466L5.49714 0.3607Z" fill="url(#paint0_linear_1476_4623)"/>
<defs>
<linearGradient id="paint0_linear_1476_4623" x1="2.70117" y1="29.4876" x2="29.1477" y2="-0.137482" gradientUnits="userSpaceOnUse">
<stop offset="0.08" stop-color="#9945FF"/>
<stop offset="0.3" stop-color="#8752F3"/>
<stop offset="0.5" stop-color="#5497D5"/>
<stop offset="0.6" stop-color="#43B4CA"/>
<stop offset="0.72" stop-color="#28E0B9"/>
<stop offset="0.97" stop-color="#19FB9B"/>
</linearGradient>
</defs>
</svg>
