<svg width="48" height="48" viewBox="0 0 48 48" fill="none" xmlns="http://www.w3.org/2000/svg">
<path d="M11.2002 43.2085V43.1921" stroke="#00FFFF" stroke-width="3.2" stroke-linecap="square"/>
<path d="M17.5996 43.2085V43.1921" stroke="#00FFFF" stroke-width="3.2" stroke-linecap="square"/>
<path d="M24 43.2085V43.1921" stroke="#00FFFF" stroke-width="3.2" stroke-linecap="square"/>
<path d="M30.4004 43.2085V43.1921" stroke="#00FFFF" stroke-width="3.2" stroke-linecap="square"/>
<path d="M36.7998 43.2085V43.1921" stroke="#00FFFF" stroke-width="3.2" stroke-linecap="square"/>
<path d="M43.2002 43.2085V43.1921" stroke="#00FFFF" stroke-opacity="0.01" stroke-width="3.2"/>
<path d="M24 36.8086V36.7922" stroke="#00FFFF" stroke-opacity="0.01" stroke-width="3.2"/>
<path d="M36.7998 36.8086V36.7922" stroke="#00FFFF" stroke-opacity="0.01" stroke-width="3.2"/>
<path d="M4.7998 30.4084V30.3921" stroke="#00FFFF" stroke-width="3.2" stroke-linecap="square"/>
<path d="M17.5996 30.4084V30.3921" stroke="#00FFFF" stroke-opacity="0.01" stroke-width="3.2"/>
<path d="M17.5996 24.0246V24.0083" stroke="#00FFFF" stroke-opacity="0.01" stroke-width="3.2"/>
<path d="M24 30.4084V30.3921" stroke="#00FFFF" stroke-opacity="0.01" stroke-width="3.2"/>
<path d="M30.4004 36.8086V36.7922" stroke="#00FFFF" stroke-opacity="0.01" stroke-width="3.2"/>
<path d="M30.4004 30.4084V30.3921" stroke="#00FFFF" stroke-opacity="0.01" stroke-width="3.2"/>
<path d="M11.2002 24.0085V23.9922" stroke="#00FFFF" stroke-opacity="0.01" stroke-width="3.2"/>
<path d="M11.2002 17.6245V17.6082" stroke="#00FFFF" stroke-opacity="0.01" stroke-width="3.2"/>
<path d="M24 24.0085V23.9922" stroke="#00FFFF" stroke-opacity="0.01" stroke-width="3.2"/>
<path d="M30.4004 24.0085V23.9922" stroke="#00FFFF" stroke-opacity="0.01" stroke-width="3.2"/>
<path d="M43.2002 24.0085V23.9922" stroke="#00FFFF" stroke-opacity="0.01" stroke-width="3.2"/>
<path d="M43.2002 30.4162V30.3999" stroke="#00FFFF" stroke-opacity="0.01" stroke-width="3.2"/>
<path d="M17.5996 17.6086V17.5923" stroke="#00FFFF" stroke-opacity="0.01" stroke-width="3.2"/>
<path d="M36.7998 17.6086V17.5923" stroke="#00FFFF" stroke-opacity="0.01" stroke-width="3.2"/>
<path d="M11.2002 11.2085V11.1921" stroke="#00FFFF" stroke-opacity="0.01" stroke-width="3.2"/>
<path d="M4.7998 36.8086V36.7922" stroke="#00FFFF" stroke-width="3.2" stroke-linecap="square"/>
<path d="M4.7998 43.2085V43.1921" stroke="#00FFFF" stroke-opacity="0.01" stroke-width="3.2"/>
<path d="M4.7998 24.0085V23.9922" stroke="#00FFFF" stroke-width="3.2" stroke-linecap="square"/>
<path d="M4.7998 17.6086V17.5923" stroke="#00FFFF" stroke-width="3.2" stroke-linecap="square"/>
<path d="M4.7998 11.2085V11.1921" stroke="#00FFFF" stroke-width="3.2" stroke-linecap="square"/>
<path d="M4.7998 4.80857V4.79224" stroke="#00FFFF" stroke-opacity="0.01" stroke-width="3.2"/>
<path d="M24 11.2085V11.1921" stroke="#00FFFF" stroke-opacity="0.01" stroke-width="3.2"/>
<path d="M17.5996 11.2085V11.1921" stroke="#00FFFF" stroke-opacity="0.01" stroke-width="3.2"/>
<path d="M30.4004 11.2085V11.1921" stroke="#00FFFF" stroke-opacity="0.01" stroke-width="3.2"/>
<path d="M43.2002 4.80857V4.79224" stroke="#00FFFF" stroke-opacity="0.01" stroke-width="3.2"/>
<path d="M43.2002 11.2085V11.1921" stroke="#00FFFF" stroke-opacity="0.01" stroke-width="3.2"/>
<path d="M11.2002 4.80857V4.79224" stroke="#00FFFF" stroke-width="3.2" stroke-linecap="square"/>
<path d="M17.5996 4.80857V4.79224" stroke="#00FFFF" stroke-width="3.2" stroke-linecap="square"/>
<path d="M24 4.80857V4.79224" stroke="#00FFFF" stroke-width="3.2" stroke-linecap="square"/>
<path d="M43.2002 36.8164V36.8" stroke="#00FFFF" stroke-opacity="0.01" stroke-width="3.2"/>
<path d="M30.4004 4.80857V4.79224" stroke="#00FFFF" stroke-opacity="0.01" stroke-width="3.2"/>
<path d="M30.4004 17.6001H30.4167" stroke="#00FFFF" stroke-width="3.2" stroke-linecap="square"/>
<path d="M36.7998 4.80005H36.8161" stroke="#00FFFF" stroke-width="3.2" stroke-linecap="square"/>
<path d="M36.7998 24H36.8161" stroke="#00FFFF" stroke-width="3.2" stroke-linecap="square"/>
<path d="M43.2002 17.6001H43.2165" stroke="#00FFFF" stroke-width="3.2" stroke-linecap="square"/>
<path d="M36.7998 30.3999H36.8161" stroke="#00FFFF" stroke-width="3.2" stroke-linecap="square"/>
<path d="M36.7998 11.2H36.8161" stroke="#00FFFF" stroke-width="3.2" stroke-linecap="square"/>
<path d="M24.0134 17.6001H23.9971" stroke="#00FFFF" stroke-opacity="0.25" stroke-width="3.2" stroke-linecap="square"/>
<path d="M11.2165 30.3999H11.2002" stroke="#00FFFF" stroke-opacity="0.25" stroke-width="3.2" stroke-linecap="square"/>
<path d="M11.2165 36.8H11.2002" stroke="#00FFFF" stroke-opacity="0.25" stroke-width="3.2" stroke-linecap="square"/>
<path d="M17.6159 36.8H17.5996" stroke="#00FFFF" stroke-opacity="0.25" stroke-width="3.2" stroke-linecap="square"/>
</svg>
