<svg width="104" height="64" viewBox="0 0 104 64" fill="none" xmlns="http://www.w3.org/2000/svg">
<path d="M41.5786 54.012L10.3945 36.0078V43.5095L41.5786 61.5137V54.012Z" fill="#ADB9D2" fill-opacity="0.08"/>
<path d="M93.5523 36.008L62.3682 54.0122V61.5139L93.5523 43.5098V36.008Z" fill="#ADB9D2" fill-opacity="0.08"/>
<path d="M6.08887 30.0066C6.08887 32.3503 7.73426 34.4721 10.3945 36.008V43.5097C7.73426 41.9738 6.08887 39.852 6.08887 37.5083V30.0066Z" fill="#ADB9D2" fill-opacity="0.08"/>
<path d="M41.5786 54.0122C47.3194 57.3267 56.6272 57.3267 62.368 54.0122V61.5139C56.6272 64.8284 47.3194 64.8284 41.5786 61.5139V54.0122Z" fill="#ADB9D2" fill-opacity="0.08"/>
<path d="M97.8579 30.0066C97.8579 32.3503 96.2125 34.4721 93.5522 36.008V43.5097C96.2125 41.9738 97.8579 39.852 97.8579 37.5083V30.0066Z" fill="#ADB9D2" fill-opacity="0.08"/>
<path d="M93.5524 24.0055L62.3684 6.0014C56.6275 2.68692 47.3198 2.68692 41.5789 6.0014L10.3949 24.0055C4.65406 27.32 4.65406 32.6938 10.3949 36.0083L41.5789 54.0124C47.3198 57.3269 56.6275 57.3269 62.3684 54.0124L93.5524 36.0083C99.2932 32.6938 99.2932 27.32 93.5524 24.0055Z" fill="#11141A"/>
<path d="M93.5524 24.0055L62.3684 6.0014C56.6275 2.68692 47.3198 2.68692 41.5789 6.0014L10.3949 24.0055C4.65406 27.32 4.65406 32.6938 10.3949 36.0083L41.5789 54.0124C47.3198 57.3269 56.6275 57.3269 62.3684 54.0124L93.5524 36.0083C99.2932 32.6938 99.2932 27.32 93.5524 24.0055Z" fill="url(#paint0_linear_1704_726)"/>
<path d="M93.5524 24.0055L62.3684 6.0014C56.6275 2.68692 47.3198 2.68692 41.5789 6.0014L10.3949 24.0055C4.65406 27.32 4.65406 32.6938 10.3949 36.0083L41.5789 54.0124C47.3198 57.3269 56.6275 57.3269 62.3684 54.0124L93.5524 36.0083C99.2932 32.6938 99.2932 27.32 93.5524 24.0055Z" stroke="url(#paint1_linear_1704_726)" stroke-opacity="0.5" stroke-width="0.998821"/>
<path d="M64.0847 31.0034L60.5483 33.0449L64.0847 35.0865L67.621 33.0449L64.0847 31.0034Z" fill="#3381FF"/>
<path d="M57.0114 35.0864L53.4751 37.1279L57.0114 39.1695L60.5478 37.1279L57.0114 35.0864Z" fill="#3381FF"/>
<path d="M57.0114 31.0034L53.4751 33.0449L57.0114 35.0865L60.5478 33.0449L57.0114 31.0034Z" fill="#3381FF"/>
<path d="M53.4753 28.9619L49.939 31.0034L53.4753 33.045L57.0117 31.0034L53.4753 28.9619Z" fill="#3381FF"/>
<path d="M49.9387 26.9204L46.4023 28.9619L49.9387 31.0034L53.475 28.9619L49.9387 26.9204Z" fill="#3381FF"/>
<path d="M42.8664 26.9204L39.3301 28.9619L42.8664 31.0034L46.4028 28.9619L42.8664 26.9204Z" fill="#3381FF"/>
<path d="M49.9397 22.8371L46.4033 24.8787L49.9397 26.9202L53.476 24.8787L49.9397 22.8371Z" fill="#3381FF"/>
<path d="M42.8664 22.8371L39.3301 24.8787L42.8664 26.9202L46.4028 24.8787L42.8664 22.8371Z" fill="#3381FF"/>
<path d="M49.9387 35.0864L46.4023 37.1279L49.9387 39.1695L53.475 37.1279L49.9387 35.0864Z" fill="#3381FF"/>
<path d="M64.0837 26.9204L60.5474 28.9619L64.0837 31.0034L67.6201 28.9619L64.0837 26.9204Z" fill="#3381FF"/>
<defs>
<linearGradient id="paint0_linear_1704_726" x1="103.996" y1="-3.63773e-07" x2="64.9792" y2="67.5367" gradientUnits="userSpaceOnUse">
<stop stop-color="#DDEAE0" stop-opacity="0.08"/>
<stop offset="1" stop-color="#DDEAE0" stop-opacity="0"/>
</linearGradient>
<linearGradient id="paint1_linear_1704_726" x1="52.1223" y1="2.67046" x2="74.8607" y2="42.0545" gradientUnits="userSpaceOnUse">
<stop stop-color="#3381FF"/>
<stop offset="1" stop-color="#3381FF"/>
</linearGradient>
</defs>
</svg>
