<svg width="104" height="64" viewBox="0 0 104 64" fill="none" xmlns="http://www.w3.org/2000/svg">
<path d="M41.5786 54.0119L10.3945 36.0078V43.5095L41.5786 61.5137V54.0119Z" fill="#ADB9D2" fill-opacity="0.08"/>
<path d="M93.5523 36.008L62.3682 54.0122V61.5139L93.5523 43.5098V36.008Z" fill="#ADB9D2" fill-opacity="0.08"/>
<path d="M6.08887 30.0066C6.08887 32.3503 7.73426 34.4721 10.3945 36.008V43.5097C7.73426 41.9738 6.08887 39.852 6.08887 37.5083V30.0066Z" fill="#ADB9D2" fill-opacity="0.08"/>
<path d="M41.5786 54.0122C47.3194 57.3267 56.6272 57.3267 62.368 54.0122V61.5139C56.6272 64.8284 47.3194 64.8284 41.5786 61.5139V54.0122Z" fill="#ADB9D2" fill-opacity="0.08"/>
<path d="M97.8579 30.0066C97.8579 32.3503 96.2125 34.4721 93.5522 36.008V43.5097C96.2125 41.9738 97.8579 39.852 97.8579 37.5083V30.0066Z" fill="#ADB9D2" fill-opacity="0.08"/>
<path d="M93.5524 24.0055L62.3684 6.0014C56.6275 2.68692 47.3198 2.68692 41.5789 6.0014L10.3949 24.0055C4.65406 27.32 4.65406 32.6938 10.3949 36.0083L41.5789 54.0124C47.3198 57.3269 56.6275 57.3269 62.3684 54.0124L93.5524 36.0083C99.2932 32.6938 99.2932 27.32 93.5524 24.0055Z" fill="#11141A"/>
<path d="M93.5524 24.0055L62.3684 6.0014C56.6275 2.68692 47.3198 2.68692 41.5789 6.0014L10.3949 24.0055C4.65406 27.32 4.65406 32.6938 10.3949 36.0083L41.5789 54.0124C47.3198 57.3269 56.6275 57.3269 62.3684 54.0124L93.5524 36.0083C99.2932 32.6938 99.2932 27.32 93.5524 24.0055Z" fill="url(#paint0_linear_1702_610)"/>
<path d="M93.5524 24.0055L62.3684 6.0014C56.6275 2.68692 47.3198 2.68692 41.5789 6.0014L10.3949 24.0055C4.65406 27.32 4.65406 32.6938 10.3949 36.0083L41.5789 54.0124C47.3198 57.3269 56.6275 57.3269 62.3684 54.0124L93.5524 36.0083C99.2932 32.6938 99.2932 27.32 93.5524 24.0055Z" stroke="url(#paint1_linear_1702_610)" stroke-opacity="0.5" stroke-width="0.998821"/>
<path d="M32.7707 32.9988L29.9995 34.5986L32.7707 36.1984L35.542 34.5986L32.7707 32.9988Z" fill="#88FF33"/>
<path d="M35.5422 34.5987L32.771 36.1985L35.5422 37.7983L38.3135 36.1985L35.5422 34.5987Z" fill="#88FF33"/>
<path d="M35.5422 31.399L32.771 32.9988L35.5422 34.5986L38.3135 32.9988L35.5422 31.399Z" fill="#88FF33"/>
<path d="M38.3142 29.7991L35.543 31.3989L38.3142 32.9987L41.0854 31.3989L38.3142 29.7991Z" fill="#88FF33"/>
<path d="M38.3142 29.7991L35.543 31.3989L38.3142 32.9987L41.0854 31.3989L38.3142 29.7991Z" fill="#88FF33"/>
<path d="M38.3142 29.7991L35.543 31.3989L38.3142 32.9987L41.0854 31.3989L38.3142 29.7991Z" fill="#88FF33"/>
<path d="M63.2551 18.6002L60.4839 20.2L63.2551 21.7998L66.0263 20.2L63.2551 18.6002Z" fill="#88FF33"/>
<path d="M57.7131 21.7999L54.9419 23.3997L57.7131 24.9995L60.4844 23.3997L57.7131 21.7999Z" fill="#88FF33"/>
<path d="M71.5691 23.4L68.7979 24.9998L71.5691 26.5996L74.3403 24.9998L71.5691 23.4Z" fill="#88FF33"/>
<path d="M68.7976 21.7999L66.0264 23.3997L68.7976 24.9995L71.5688 23.3997L68.7976 21.7999Z" fill="#88FF33"/>
<path d="M66.0266 26.5997L63.2554 28.1995L66.0266 29.7993L68.7978 28.1995L66.0266 26.5997Z" fill="#88FF33"/>
<path d="M63.2551 24.9998L60.4839 26.5996L63.2551 28.1994L66.0263 26.5996L63.2551 24.9998Z" fill="#88FF33"/>
<path d="M66.0266 20.1998L63.2554 21.7996L66.0266 23.3994L68.7978 21.7996L66.0266 20.1998Z" fill="#88FF33"/>
<path d="M60.4831 23.4L57.7119 24.9998L60.4831 26.5996L63.2544 24.9998L60.4831 23.4Z" fill="#88FF33"/>
<path d="M60.4831 17.0003L57.7119 18.6001L60.4831 20.1999L63.2544 18.6001L60.4831 17.0003Z" fill="#88FF33"/>
<path d="M60.4831 20.1998L57.7119 21.7996L60.4831 23.3994L63.2544 21.7996L60.4831 20.1998Z" fill="#88FF33"/>
<path d="M54.9412 20.1998L52.1699 21.7996L54.9412 23.3994L57.7124 21.7996L54.9412 20.1998Z" fill="#88FF33"/>
<path d="M54.9412 32.9986L52.1699 34.5984L54.9412 36.1982L57.7124 34.5984L54.9412 32.9986Z" fill="#88FF33"/>
<path d="M57.7131 31.399L54.9419 32.9988L57.7131 34.5986L60.4844 32.9988L57.7131 31.399Z" fill="#88FF33"/>
<path d="M57.7131 28.1993L54.9419 29.7991L57.7131 31.3989L60.4844 29.7991L57.7131 28.1993Z" fill="#88FF33"/>
<path d="M52.1697 28.1993L49.3984 29.7991L52.1697 31.3989L54.9409 29.7991L52.1697 28.1993Z" fill="#88FF33"/>
<path d="M46.6272 28.1993L43.856 29.7991L46.6272 31.3989L49.3984 29.7991L46.6272 28.1993Z" fill="#88FF33"/>
<path d="M49.3992 23.4L46.6279 24.9998L49.3992 26.5996L52.1704 24.9998L49.3992 23.4Z" fill="#88FF33"/>
<path d="M46.6272 24.9998L43.856 26.5996L46.6272 28.1994L49.3984 26.5996L46.6272 24.9998Z" fill="#88FF33"/>
<path d="M43.8562 39.3985L41.085 40.9983L43.8562 42.5981L46.6274 40.9983L43.8562 39.3985Z" fill="#88FF33"/>
<path d="M49.3992 36.1985L46.6279 37.7983L49.3992 39.3981L52.1704 37.7983L49.3992 36.1985Z" fill="#88FF33"/>
<path d="M46.6272 34.5987L43.856 36.1985L46.6272 37.7983L49.3984 36.1985L46.6272 34.5987Z" fill="#88FF33"/>
<path d="M41.0847 34.5987L38.3135 36.1985L41.0847 37.7983L43.8559 36.1985L41.0847 34.5987Z" fill="#88FF33"/>
<path d="M41.0847 37.7986L38.3135 39.3984L41.0847 40.9982L43.8559 39.3984L41.0847 37.7986Z" fill="#88FF33"/>
<path d="M38.3142 36.1985L35.543 37.7983L38.3142 39.3981L41.0854 37.7983L38.3142 36.1985Z" fill="#88FF33"/>
<path d="M43.8562 32.9986L41.085 34.5984L43.8562 36.1982L46.6274 34.5984L43.8562 32.9986Z" fill="#88FF33"/>
<path d="M41.0847 31.399L38.3135 32.9988L41.0847 34.5986L43.8559 32.9988L41.0847 31.399Z" fill="#88FF33"/>
<defs>
<linearGradient id="paint0_linear_1702_610" x1="103.996" y1="-3.63773e-07" x2="64.9792" y2="67.5367" gradientUnits="userSpaceOnUse">
<stop stop-color="#8CFF66" stop-opacity="0.08"/>
<stop offset="1" stop-color="#8CFF66" stop-opacity="0"/>
</linearGradient>
<linearGradient id="paint1_linear_1702_610" x1="52.1223" y1="2.67046" x2="74.8607" y2="42.0545" gradientUnits="userSpaceOnUse">
<stop stop-color="#88FF33"/>
<stop offset="1" stop-color="#88FF33"/>
</linearGradient>
</defs>
</svg>
