<svg width="104" height="64" viewBox="0 0 104 64" fill="none" xmlns="http://www.w3.org/2000/svg">
<path d="M41.5786 54.0119L10.3945 36.0078V43.5095L41.5786 61.5137V54.0119Z" fill="#ADB9D2" fill-opacity="0.08"/>
<path d="M93.5523 36.0081L62.3682 54.0122V61.5139L93.5523 43.5098V36.0081Z" fill="#ADB9D2" fill-opacity="0.08"/>
<path d="M6.08887 30.0066C6.08887 32.3503 7.73426 34.4721 10.3945 36.008V43.5097C7.73426 41.9738 6.08887 39.852 6.08887 37.5083V30.0066Z" fill="#ADB9D2" fill-opacity="0.08"/>
<path d="M41.5786 54.0122C47.3194 57.3267 56.6272 57.3267 62.368 54.0122V61.5139C56.6272 64.8284 47.3194 64.8284 41.5786 61.5139V54.0122Z" fill="#ADB9D2" fill-opacity="0.08"/>
<path d="M97.8579 30.0066C97.8579 32.3503 96.2125 34.4721 93.5522 36.008V43.5097C96.2125 41.9738 97.8579 39.852 97.8579 37.5083V30.0066Z" fill="#ADB9D2" fill-opacity="0.08"/>
<path d="M93.5524 24.0055L62.3684 6.0014C56.6275 2.68692 47.3198 2.68692 41.5789 6.0014L10.3949 24.0055C4.65406 27.32 4.65406 32.6938 10.3949 36.0083L41.5789 54.0124C47.3198 57.3269 56.6275 57.3269 62.3684 54.0124L93.5524 36.0083C99.2932 32.6938 99.2932 27.32 93.5524 24.0055Z" fill="#11141A"/>
<path d="M93.5524 24.0055L62.3684 6.0014C56.6275 2.68692 47.3198 2.68692 41.5789 6.0014L10.3949 24.0055C4.65406 27.32 4.65406 32.6938 10.3949 36.0083L41.5789 54.0124C47.3198 57.3269 56.6275 57.3269 62.3684 54.0124L93.5524 36.0083C99.2932 32.6938 99.2932 27.32 93.5524 24.0055Z" fill="url(#paint0_linear_1702_653)"/>
<g clip-path="url(#clip0_1702_653)">
<path d="M53.879 20.4827L55.3453 19.6362L57.0782 20.6366L55.6119 21.4831L53.879 20.4827Z" fill="#8446FF"/>
<path d="M52.4128 21.3292L53.879 20.4827L55.6119 21.4831L54.1456 22.3296L52.4128 21.3292Z" fill="#8446FF"/>
<path d="M50.9465 22.1757L52.4128 21.3292L54.1456 22.3296L52.6793 23.1761L50.9465 22.1757Z" fill="#8446FF"/>
<path d="M49.4802 23.0221L50.9465 22.1757L52.6793 23.1761L51.2131 24.0225L49.4802 23.0221Z" fill="#8446FF"/>
<path d="M48.0139 23.8686L49.4802 23.0221L51.2131 24.0225L49.7468 24.869L48.0139 23.8686Z" fill="#8446FF"/>
<path d="M46.5477 24.7151L48.0139 23.8686L49.7468 24.869L48.2805 25.7155L46.5477 24.7151Z" fill="#8446FF"/>
<path d="M45.0821 25.5612L46.5477 24.7151L48.2805 25.7155L46.815 26.5616L45.0821 25.5612Z" fill="#8446FF"/>
<path d="M43.6151 26.4081L45.0821 25.5612L46.815 26.5616L45.348 27.4084L43.6151 26.4081Z" fill="#8446FF"/>
<path d="M42.1489 27.2545L43.6151 26.4081L45.348 27.4084L43.8817 28.2549L42.1489 27.2545Z" fill="#8446FF"/>
<path d="M40.6826 28.101L42.1489 27.2545L43.8817 28.2549L42.4154 29.1014L40.6826 28.101Z" fill="#8446FF"/>
<path d="M39.2163 28.9475L40.6826 28.101L42.4154 29.1014L40.9492 29.9479L39.2163 28.9475Z" fill="#8446FF"/>
<path d="M37.75 29.794L39.2163 28.9475L40.9492 29.9479L39.4829 30.7944L37.75 29.794Z" fill="#8446FF"/>
<path d="M36.2838 30.6405L37.75 29.794L39.4829 30.7944L38.0166 31.6408L36.2838 30.6405Z" fill="#8446FF"/>
<path d="M34.8175 31.4869L36.2838 30.6405L38.0166 31.6408L36.5504 32.4873L34.8175 31.4869Z" fill="#8446FF"/>
<path d="M53.612 18.6356L55.0782 17.7891L56.8111 18.7895L55.3453 19.6362L53.612 18.6356Z" fill="#8446FF"/>
<path d="M52.1457 19.4821L53.612 18.6356L55.3453 19.6362L53.879 20.4827L52.1457 19.4821Z" fill="#8446FF"/>
<path d="M50.6794 20.3285L52.1457 19.4821L53.879 20.4827L52.4128 21.3292L50.6794 20.3285Z" fill="#8446FF"/>
<path d="M49.2132 21.175L50.6794 20.3285L52.4128 21.3292L50.9465 22.1757L49.2132 21.175Z" fill="#8446FF"/>
<path d="M47.7469 22.0215L49.2132 21.175L50.9465 22.1757L49.4802 23.0221L47.7469 22.0215Z" fill="#8446FF"/>
<path d="M46.2806 22.868L47.7469 22.0215L49.4802 23.0221L48.0139 23.8686L46.2806 22.868Z" fill="#8446FF"/>
<path d="M44.8143 23.7145L46.2806 22.868L48.0139 23.8686L46.5477 24.7151L44.8143 23.7145Z" fill="#8446FF"/>
<path d="M43.3488 24.5605L44.8143 23.7145L46.5477 24.7151L45.0821 25.5612L43.3488 24.5605Z" fill="#8446FF"/>
<path d="M41.8818 25.4074L43.3488 24.5605L45.0821 25.5612L43.6151 26.4081L41.8818 25.4074Z" fill="#8446FF"/>
<path d="M40.4155 26.2539L41.8818 25.4074L43.6151 26.4081L42.1489 27.2545L40.4155 26.2539Z" fill="#8446FF"/>
<path d="M38.9493 27.1004L40.4155 26.2539L42.1489 27.2545L40.6826 28.101L38.9493 27.1004Z" fill="#8446FF"/>
<path d="M37.483 27.9469L38.9493 27.1004L40.6826 28.101L39.2163 28.9475L37.483 27.9469Z" fill="#8446FF"/>
<path d="M36.0167 28.7933L37.483 27.9469L39.2163 28.9475L37.75 29.794L36.0167 28.7933Z" fill="#8446FF"/>
<path d="M53.3456 16.7889L54.8119 15.9424L56.5448 16.9428L55.0782 17.7891L53.3456 16.7889Z" fill="#8446FF"/>
<path d="M51.8794 17.6354L53.3456 16.7889L55.0782 17.7891L53.612 18.6356L51.8794 17.6354Z" fill="#8446FF"/>
<path d="M50.4131 18.4818L51.8794 17.6354L53.612 18.6356L52.1457 19.4821L50.4131 18.4818Z" fill="#8446FF"/>
<path d="M48.9468 19.3283L50.4131 18.4818L52.1457 19.4821L50.6794 20.3285L48.9468 19.3283Z" fill="#8446FF"/>
<path d="M47.4806 20.1748L48.9468 19.3283L50.6794 20.3285L49.2132 21.175L47.4806 20.1748Z" fill="#8446FF"/>
<path d="M46.0143 21.0213L47.4806 20.1748L49.2132 21.175L47.7469 22.0215L46.0143 21.0213Z" fill="#8446FF"/>
<path d="M44.548 21.8677L46.0143 21.0213L47.7469 22.0215L46.2806 22.868L44.548 21.8677Z" fill="#8446FF"/>
<path d="M43.0817 22.7142L44.548 21.8677L46.2806 22.868L44.8143 23.7145L43.0817 22.7142Z" fill="#8446FF"/>
<path d="M41.6162 23.5603L43.0817 22.7142L44.8143 23.7145L43.3488 24.5605L41.6162 23.5603Z" fill="#8446FF"/>
<path d="M40.1492 24.4072L41.6162 23.5603L43.3488 24.5605L41.8818 25.4074L40.1492 24.4072Z" fill="#8446FF"/>
<path d="M38.6829 25.2537L40.1492 24.4072L41.8818 25.4074L40.4155 26.2539L38.6829 25.2537Z" fill="#8446FF"/>
<path d="M37.2167 26.1001L38.6829 25.2537L40.4155 26.2539L38.9493 27.1004L37.2167 26.1001Z" fill="#8446FF"/>
<path d="M35.7504 26.9466L37.2167 26.1001L38.9493 27.1004L37.483 27.9469L35.7504 26.9466Z" fill="#8446FF"/>
<path d="M34.2841 27.7931L35.7504 26.9466L37.483 27.9469L36.0167 28.7933L34.2841 27.7931Z" fill="#8446FF"/>
<path d="M34.5504 29.6398L36.0167 28.7933L37.75 29.794L36.2838 30.6405L34.5504 29.6398Z" fill="#8446FF"/>
<path d="M57.3442 24.1761L58.8105 23.3297L60.5434 24.33L59.0771 25.1765L57.3442 24.1761Z" fill="#8446FF"/>
<path d="M55.878 25.0226L57.3442 24.1761L59.0771 25.1765L57.6108 26.023L55.878 25.0226Z" fill="#8446FF"/>
<path d="M54.4117 25.8691L55.878 25.0226L57.6108 26.023L56.1446 26.8695L54.4117 25.8691Z" fill="#8446FF"/>
<path d="M52.9454 26.7156L54.4117 25.8691L56.1446 26.8695L54.6783 27.716L52.9454 26.7156Z" fill="#8446FF"/>
<path d="M51.4792 27.5621L52.9454 26.7156L54.6783 27.716L53.212 28.5624L51.4792 27.5621Z" fill="#8446FF"/>
<path d="M50.0136 28.4081L51.4792 27.5621L53.212 28.5624L51.7465 29.4085L50.0136 28.4081Z" fill="#8446FF"/>
<path d="M60.5434 24.33L62.0101 23.4838L63.743 24.4842L62.2767 25.3307L60.5434 24.33Z" fill="#8446FF"/>
<path d="M59.0771 25.1765L60.5434 24.33L62.2767 25.3307L60.8104 26.1772L59.0771 25.1765Z" fill="#8446FF"/>
<path d="M57.6108 26.023L59.0771 25.1765L60.8104 26.1772L59.3442 27.0236L57.6108 26.023Z" fill="#8446FF"/>
<path d="M56.1446 26.8695L57.6108 26.023L59.3442 27.0236L57.8779 27.8701L56.1446 26.8695Z" fill="#8446FF"/>
<path d="M54.6783 27.716L56.1446 26.8695L57.8779 27.8701L56.4116 28.7166L54.6783 27.716Z" fill="#8446FF"/>
<path d="M53.212 28.5624L54.6783 27.716L56.4116 28.7166L54.9453 29.5631L53.212 28.5624Z" fill="#8446FF"/>
<path d="M51.7465 29.4085L53.212 28.5624L54.9453 29.5631L53.4798 30.4091L51.7465 29.4085Z" fill="#8446FF"/>
<path d="M50.2799 30.2557L51.7465 29.4085L53.4798 30.4091L52.0128 31.256L50.2799 30.2557Z" fill="#8446FF"/>
<path d="M63.743 24.4842L65.209 23.6376L66.9418 24.638L65.4756 25.4844L63.743 24.4842Z" fill="#8446FF"/>
<path d="M62.2767 25.3307L63.743 24.4842L65.4756 25.4844L64.0093 26.3309L62.2767 25.3307Z" fill="#8446FF"/>
<path d="M60.8104 26.1772L62.2767 25.3307L64.0093 26.3309L62.543 27.1774L60.8104 26.1772Z" fill="#8446FF"/>
<path d="M59.3442 27.0236L60.8104 26.1772L62.543 27.1774L61.0768 28.0239L59.3442 27.0236Z" fill="#8446FF"/>
<path d="M57.8779 27.8701L59.3442 27.0236L61.0768 28.0239L59.6105 28.8704L57.8779 27.8701Z" fill="#8446FF"/>
<path d="M56.4116 28.7166L57.8779 27.8701L59.6105 28.8704L58.1442 29.7168L56.4116 28.7166Z" fill="#8446FF"/>
<path d="M54.9453 29.5631L56.4116 28.7166L58.1442 29.7168L56.6779 30.5633L54.9453 29.5631Z" fill="#8446FF"/>
<path d="M53.4798 30.4091L54.9453 29.5631L56.6779 30.5633L55.2124 31.4094L53.4798 30.4091Z" fill="#8446FF"/>
<path d="M52.0128 31.256L53.4798 30.4091L55.2124 31.4094L53.7454 32.2563L52.0128 31.256Z" fill="#8446FF"/>
<path d="M50.5463 32.1024L52.0128 31.256L53.7454 32.2563L52.2791 33.1028L50.5463 32.1024Z" fill="#8446FF"/>
<path d="M49.08 32.9488L50.5463 32.1024L52.2791 33.1028L50.8129 33.9492L49.08 32.9488Z" fill="#8446FF"/>
<path d="M47.6137 33.7953L49.08 32.9488L50.8129 33.9492L49.3466 34.7957L47.6137 33.7953Z" fill="#8446FF"/>
<path d="M48.8137 31.1021L50.2799 30.2557L52.0128 31.256L50.5463 32.1024L48.8137 31.1021Z" fill="#8446FF"/>
<path d="M47.3474 31.9486L48.8137 31.1021L50.5463 32.1024L49.08 32.9488L47.3474 31.9486Z" fill="#8446FF"/>
<path d="M45.8811 32.7951L47.3474 31.9486L49.08 32.9488L47.6137 33.7953L45.8811 32.7951Z" fill="#8446FF"/>
<path d="M44.4148 33.6416L45.8811 32.7951L47.6137 33.7953L46.1477 34.642L44.4148 33.6416Z" fill="#8446FF"/>
<path d="M48.5466 29.255L50.0136 28.4081L51.7465 29.4085L50.2799 30.2557L48.5466 29.255Z" fill="#8446FF"/>
<path d="M47.0803 30.1015L48.5466 29.255L50.2799 30.2557L48.8137 31.1021L47.0803 30.1015Z" fill="#8446FF"/>
<path d="M45.6141 30.948L47.0803 30.1015L48.8137 31.1021L47.3474 31.9486L45.6141 30.948Z" fill="#8446FF"/>
<path d="M44.1478 31.7944L45.6141 30.948L47.3474 31.9486L45.8811 32.7951L44.1478 31.7944Z" fill="#8446FF"/>
<path d="M42.6815 32.6409L44.1478 31.7944L45.8811 32.7951L44.4148 33.6416L42.6815 32.6409Z" fill="#8446FF"/>
<path d="M41.2152 33.4874L42.6815 32.6409L44.4148 33.6416L42.9481 34.4878L41.2152 33.4874Z" fill="#8446FF"/>
<path d="M39.749 34.3339L41.2152 33.4874L42.9481 34.4878L41.4818 35.3343L39.749 34.3339Z" fill="#8446FF"/>
<path d="M42.9481 34.4878L44.4148 33.6416L46.1477 34.642L44.6814 35.4884L42.9481 34.4878Z" fill="#8446FF"/>
<path d="M46.1477 34.642L47.6137 33.7953L49.3466 34.7957L47.8803 35.6422L46.1477 34.642Z" fill="#8446FF"/>
<path d="M68.6749 27.3314L70.1412 26.4849L71.8741 27.4853L70.4078 28.3318L68.6749 27.3314Z" fill="#8446FF"/>
<path d="M67.2086 28.1779L68.6749 27.3314L70.4078 28.3318L68.9415 29.1783L67.2086 28.1779Z" fill="#8446FF"/>
<path d="M65.7424 29.0244L67.2086 28.1779L68.9415 29.1783L67.4752 30.0248L65.7424 29.0244Z" fill="#8446FF"/>
<path d="M64.2761 29.8709L65.7424 29.0244L67.4752 30.0248L66.009 30.8712L64.2761 29.8709Z" fill="#8446FF"/>
<path d="M62.8098 30.7173L64.2761 29.8709L66.009 30.8712L64.5427 31.7177L62.8098 30.7173Z" fill="#8446FF"/>
<path d="M61.3436 31.5638L62.8098 30.7173L64.5427 31.7177L63.0764 32.5642L61.3436 31.5638Z" fill="#8446FF"/>
<path d="M59.8773 32.4103L61.3436 31.5638L63.0764 32.5642L61.6101 33.4107L59.8773 32.4103Z" fill="#8446FF"/>
<path d="M58.4117 33.2564L59.8773 32.4103L61.6101 33.4107L60.1446 34.2567L58.4117 33.2564Z" fill="#8446FF"/>
<path d="M56.9447 34.1032L58.4117 33.2564L60.1446 34.2567L58.6776 35.1036L56.9447 34.1032Z" fill="#8446FF"/>
<path d="M55.4785 34.9497L56.9447 34.1032L58.6776 35.1036L57.2113 35.9501L55.4785 34.9497Z" fill="#8446FF"/>
<path d="M54.0122 35.7962L55.4785 34.9497L57.2113 35.9501L55.7451 36.7966L54.0122 35.7962Z" fill="#8446FF"/>
<path d="M52.5459 36.6427L54.0122 35.7962L55.7451 36.7966L54.2788 37.6431L52.5459 36.6427Z" fill="#8446FF"/>
<path d="M70.1412 26.4849L71.6075 25.6385L73.3403 26.6388L71.8741 27.4853L70.1412 26.4849Z" fill="#8446FF"/>
<path d="M70.4078 28.3318L71.8741 27.4853L73.6067 28.4856L72.1404 29.332L70.4078 28.3318Z" fill="#8446FF"/>
<path d="M68.9415 29.1783L70.4078 28.3318L72.1404 29.332L70.6741 30.1785L68.9415 29.1783Z" fill="#8446FF"/>
<path d="M67.4752 30.0248L68.9415 29.1783L70.6741 30.1785L69.2078 31.025L67.4752 30.0248Z" fill="#8446FF"/>
<path d="M66.009 30.8712L67.4752 30.0248L69.2078 31.025L67.7416 31.8715L66.009 30.8712Z" fill="#8446FF"/>
<path d="M64.5427 31.7177L66.009 30.8712L67.7416 31.8715L66.2753 32.718L64.5427 31.7177Z" fill="#8446FF"/>
<path d="M63.0764 32.5642L64.5427 31.7177L66.2753 32.718L64.809 33.5644L63.0764 32.5642Z" fill="#8446FF"/>
<path d="M61.6101 33.4107L63.0764 32.5642L64.809 33.5644L63.3428 34.4109L61.6101 33.4107Z" fill="#8446FF"/>
<path d="M60.1446 34.2567L61.6101 33.4107L63.3428 34.4109L61.8772 35.257L60.1446 34.2567Z" fill="#8446FF"/>
<path d="M58.6776 35.1036L60.1446 34.2567L61.8772 35.257L60.4102 36.1039L58.6776 35.1036Z" fill="#8446FF"/>
<path d="M57.2113 35.9501L58.6776 35.1036L60.4102 36.1039L58.9439 36.9503L57.2113 35.9501Z" fill="#8446FF"/>
<path d="M55.7451 36.7966L57.2113 35.9501L58.9439 36.9503L57.4777 37.7968L55.7451 36.7966Z" fill="#8446FF"/>
<path d="M54.2788 37.6431L55.7451 36.7966L57.4777 37.7968L56.0114 38.6433L54.2788 37.6431Z" fill="#8446FF"/>
<path d="M52.8123 38.4894L54.2788 37.6431L56.0114 38.6433L54.5451 39.4898L52.8123 38.4894Z" fill="#8446FF"/>
<path d="M51.0796 37.4892L52.5459 36.6427L54.2788 37.6431L52.8123 38.4894L51.0796 37.4892Z" fill="#8446FF"/>
<path d="M51.346 39.3359L52.8123 38.4894L54.5451 39.4898L53.0789 40.3363L51.346 39.3359Z" fill="#8446FF"/>
<path d="M70.6741 30.1785L72.1404 29.332L73.8737 30.3327L72.4074 31.1792L70.6741 30.1785Z" fill="#8446FF"/>
<path d="M69.2078 31.025L70.6741 30.1785L72.4074 31.1792L70.9412 32.0256L69.2078 31.025Z" fill="#8446FF"/>
<path d="M67.7416 31.8715L69.2078 31.025L70.9412 32.0256L69.4749 32.8721L67.7416 31.8715Z" fill="#8446FF"/>
<path d="M66.2753 32.718L67.7416 31.8715L69.4749 32.8721L68.0086 33.7186L66.2753 32.718Z" fill="#8446FF"/>
<path d="M64.809 33.5644L66.2753 32.718L68.0086 33.7186L66.5423 34.5651L64.809 33.5644Z" fill="#8446FF"/>
<path d="M63.3428 34.4109L64.809 33.5644L66.5423 34.5651L65.0761 35.4116L63.3428 34.4109Z" fill="#8446FF"/>
<path d="M61.8772 35.257L63.3428 34.4109L65.0761 35.4116L63.6105 36.2576L61.8772 35.257Z" fill="#8446FF"/>
<path d="M60.4102 36.1039L61.8772 35.257L63.6105 36.2576L62.1435 37.1045L60.4102 36.1039Z" fill="#8446FF"/>
<path d="M58.9439 36.9503L60.4102 36.1039L62.1435 37.1045L60.6773 37.951L58.9439 36.9503Z" fill="#8446FF"/>
<path d="M57.4777 37.7968L58.9439 36.9503L60.6773 37.951L59.211 38.7975L57.4777 37.7968Z" fill="#8446FF"/>
<path d="M56.0114 38.6433L57.4777 37.7968L59.211 38.7975L57.7447 39.6439L56.0114 38.6433Z" fill="#8446FF"/>
<path d="M54.5451 39.4898L56.0114 38.6433L57.7447 39.6439L56.2784 40.4904L54.5451 39.4898Z" fill="#8446FF"/>
<path d="M53.0789 40.3363L54.5451 39.4898L56.2784 40.4904L54.8122 41.3369L53.0789 40.3363Z" fill="#8446FF"/>
<path d="M51.613 41.183L53.0789 40.3363L54.8122 41.3369L53.3459 42.1834L51.613 41.183Z" fill="#8446FF"/>
</g>
<path d="M93.5524 24.0055L62.3684 6.0014C56.6275 2.68692 47.3198 2.68692 41.5789 6.0014L10.3949 24.0055C4.65406 27.32 4.65406 32.6938 10.3949 36.0083L41.5789 54.0124C47.3198 57.3269 56.6275 57.3269 62.3684 54.0124L93.5524 36.0083C99.2932 32.6938 99.2932 27.32 93.5524 24.0055Z" stroke="url(#paint1_linear_1702_653)" stroke-opacity="0.5" stroke-width="0.998821"/>
<defs>
<linearGradient id="paint0_linear_1702_653" x1="103.996" y1="-3.63773e-07" x2="64.9792" y2="67.5367" gradientUnits="userSpaceOnUse">
<stop stop-color="#8446FF" stop-opacity="0.08"/>
<stop offset="1" stop-color="#8446FF" stop-opacity="0"/>
</linearGradient>
<linearGradient id="paint1_linear_1702_653" x1="52.1223" y1="2.67046" x2="74.8607" y2="42.0545" gradientUnits="userSpaceOnUse">
<stop stop-color="#8446FF"/>
<stop offset="1" stop-color="#8446FF"/>
</linearGradient>
<clipPath id="clip0_1702_653">
<rect width="28" height="28" fill="white" transform="matrix(0.866044 -0.499967 0.866044 0.499967 24.3784 29.0628)"/>
</clipPath>
</defs>
</svg>
