<svg width="104" height="64" viewBox="0 0 104 64" fill="none" xmlns="http://www.w3.org/2000/svg">
<path d="M41.5786 54.0119L10.3945 36.0078V43.5095L41.5786 61.5137V54.0119Z" fill="#ADB9D2" fill-opacity="0.08"/>
<path d="M93.5523 36.0081L62.3682 54.0122V61.5139L93.5523 43.5098V36.0081Z" fill="#ADB9D2" fill-opacity="0.08"/>
<path d="M6.08887 30.0066C6.08887 32.3503 7.73426 34.4721 10.3945 36.008V43.5097C7.73426 41.9738 6.08887 39.852 6.08887 37.5083V30.0066Z" fill="#ADB9D2" fill-opacity="0.08"/>
<path d="M41.5786 54.0122C47.3194 57.3267 56.6272 57.3267 62.368 54.0122V61.5139C56.6272 64.8284 47.3194 64.8284 41.5786 61.5139V54.0122Z" fill="#ADB9D2" fill-opacity="0.08"/>
<path d="M97.8574 30.0066C97.8574 32.3503 96.212 34.4721 93.5518 36.008V43.5097C96.212 41.9738 97.8574 39.852 97.8574 37.5083V30.0066Z" fill="#ADB9D2" fill-opacity="0.08"/>
<path d="M93.5524 24.0055L62.3684 6.0014C56.6275 2.68692 47.3198 2.68692 41.5789 6.0014L10.3949 24.0055C4.65406 27.32 4.65406 32.6938 10.3949 36.0083L41.5789 54.0124C47.3198 57.3269 56.6275 57.3269 62.3684 54.0124L93.5524 36.0083C99.2932 32.6938 99.2932 27.32 93.5524 24.0055Z" fill="#11141A"/>
<path d="M93.5524 24.0055L62.3684 6.0014C56.6275 2.68692 47.3198 2.68692 41.5789 6.0014L10.3949 24.0055C4.65406 27.32 4.65406 32.6938 10.3949 36.0083L41.5789 54.0124C47.3198 57.3269 56.6275 57.3269 62.3684 54.0124L93.5524 36.0083C99.2932 32.6938 99.2932 27.32 93.5524 24.0055Z" fill="url(#paint0_linear_1704_746)"/>
<path d="M93.5524 24.0055L62.3684 6.0014C56.6275 2.68692 47.3198 2.68692 41.5789 6.0014L10.3949 24.0055C4.65406 27.32 4.65406 32.6938 10.3949 36.0083L41.5789 54.0124C47.3198 57.3269 56.6275 57.3269 62.3684 54.0124L93.5524 36.0083C99.2932 32.6938 99.2932 27.32 93.5524 24.0055Z" stroke="url(#paint1_linear_1704_746)" stroke-opacity="0.5" stroke-width="0.998821"/>
<path d="M64.224 28.7242L61.2017 30.469L64.224 32.2138L67.2464 30.469L64.224 28.7242Z" fill="#FF9933"/>
<path d="M49.1122 37.4483L46.0898 39.1931L49.1122 40.9379L52.1346 39.1931L49.1122 37.4483Z" fill="#FF9933"/>
<path d="M46.0893 35.7034L43.0669 37.4482L46.0893 39.1931L49.1116 37.4482L46.0893 35.7034Z" fill="#FF9933"/>
<path d="M43.0668 33.9583L40.0444 35.7031L43.0668 37.4479L46.0892 35.7031L43.0668 33.9583Z" fill="#FF9933"/>
<path d="M37.0224 30.4688L34 32.2136L37.0224 33.9584L40.0447 32.2136L37.0224 30.4688Z" fill="#FF9933"/>
<path d="M43.0668 26.9793L40.0444 28.7241L43.0668 30.4689L46.0892 28.7241L43.0668 26.9793Z" fill="#FF9933"/>
<path d="M40.0448 28.7242L37.0225 30.469L40.0448 32.2138L43.0672 30.469L40.0448 28.7242Z" fill="#FF9933"/>
<path d="M61.2021 30.4688L58.1797 32.2136L61.2021 33.9584L64.2244 32.2136L61.2021 30.4688Z" fill="#FF9933"/>
<path d="M64.2235 25.2344L61.2012 26.9792L64.2235 28.7241L67.2459 26.9792L64.2235 25.2344Z" fill="#FF9933"/>
<path d="M58.1791 25.2344L55.1567 26.9792L58.1791 28.7241L61.2015 26.9792L58.1791 25.2344Z" fill="#FF9933"/>
<path d="M52.1347 25.2344L49.1123 26.9792L52.1347 28.7241L55.157 26.9792L52.1347 25.2344Z" fill="#FF9933"/>
<path d="M40.0448 32.2139L37.0225 33.9587L40.0448 35.7036L43.0672 33.9587L40.0448 32.2139Z" fill="#FF9933"/>
<path d="M52.1347 21.7449L49.1123 23.4897L52.1347 25.2346L55.157 23.4897L52.1347 21.7449Z" fill="#FF9933"/>
<path d="M55.1566 20.0001L52.1343 21.7449L55.1566 23.4897L58.179 21.7449L55.1566 20.0001Z" fill="#FF9933"/>
<path d="M55.1566 33.9588L52.1343 35.7036L55.1566 37.4484L58.179 35.7036L55.1566 33.9588Z" fill="#FF9933"/>
<path d="M52.1337 32.2139L49.1113 33.9587L52.1337 35.7036L55.1561 33.9587L52.1337 32.2139Z" fill="#FF9933"/>
<path d="M46.0893 32.2139L43.0669 33.9587L46.0893 35.7036L49.1116 33.9587L46.0893 32.2139Z" fill="#FF9933"/>
<path d="M46.0893 28.7242L43.0669 30.469L46.0893 32.2138L49.1116 30.469L46.0893 28.7242Z" fill="#FF9933"/>
<defs>
<linearGradient id="paint0_linear_1704_746" x1="103.996" y1="-3.63773e-07" x2="64.9792" y2="67.5367" gradientUnits="userSpaceOnUse">
<stop stop-color="#FFAD66" stop-opacity="0.08"/>
<stop offset="1" stop-color="#FFAD66" stop-opacity="0"/>
</linearGradient>
<linearGradient id="paint1_linear_1704_746" x1="52.1223" y1="2.67046" x2="74.8607" y2="42.0545" gradientUnits="userSpaceOnUse">
<stop stop-color="#FF9933"/>
<stop offset="1" stop-color="#FF9933"/>
</linearGradient>
</defs>
</svg>
